<svg xmlns="http://www.w3.org/2000/svg" viewBox="0 0 48 48" width="44" height="44">
  <path d="M32.014 19.07c-1.293 0-2.436.69-3.012 1.683-.575-.992-1.718-1.683-3.01-1.683-1.26 0-2.346.644-2.928 1.593v-1.37h-3.278v6.9c0 2.33-1.156 3.625-2.594 3.625s-2.594-1.294-2.594-3.626v-6.898h-3.28v6.898c0 3.798 2.183 6.174 5.874 6.174 1.45 0 2.718-.528 3.656-1.415.403.86 1.004 1.496 1.72 1.865v1.55h3.282V29.68c1.04-.558 1.83-1.487 2.252-2.606.558 1.123 1.487 2.022 2.604 2.606v2.713h3.28V24.86c0-3.366-2.41-5.79-5.648-5.79Zm-5.94 8.156c-1.437 0-2.595-1.32-2.595-3.118 0-1.798 1.16-3.119 2.595-3.119 1.437 0 2.595 1.32 2.595 3.12 0 1.797-1.158 3.117-2.595 3.117Zm11.226-8.156c-1.228 0-2.22.826-2.593 1.91v-1.648h-3.282v10.47h3.28v-5.61c0-1.797 1.158-3.118 2.595-3.118 1.437 0 2.593 1.32 2.593 3.12v5.608h3.28v-5.61c.002-3.367-2.41-5.791-5.595-5.791Z" fill="#6fda44"/>
</svg>
